<?xml version="1.0" encoding="UTF-8"?>
<svg xmlns="http://www.w3.org/2000/svg" xmlns:xlink="http://www.w3.org/1999/xlink" width="250pt" height="189pt" viewBox="0 0 250 189" version="1.1">
<g id="surface1">
<path style="fill:none;stroke-width:3.0446;stroke-linecap:butt;stroke-linejoin:miter;stroke:rgb(0%,0%,0%);stroke-opacity:1;stroke-miterlimit:4;" d="M 65.466285 18.262163 C 83.352779 35.897587 83.352779 59.575724 65.466285 77.209177 M 40.01296 66.452121 C 53.767241 56.639115 72.232759 56.639115 85.98704 66.452121 M 61.047524 17.978356 C 43.036531 35.735974 43.036531 59.577695 61.047524 77.335313 M 62.847833 18.009891 C 46.453363 18.094638 33.230677 31.451284 33.315653 47.845054 C 33.398653 64.242765 46.757696 77.46145 63.152167 77.378673 C 79.546637 77.293925 92.769323 63.937279 92.684347 47.541538 C 92.601347 31.266021 79.428066 18.094638 63.152167 18.009891 Z M 63 18.009891 L 63 77.378673 M 92.684347 47.693296 L 33.315653 47.693296 M 40.01296 29.833192 C 53.767241 39.646198 72.232759 39.646198 85.98704 29.833192 " transform="matrix(1.976657,0,0,1.981984,0.47059,0)"/>
</g>
</svg>
